<?xml version="1.0" encoding="utf-8"?>
<!-- Generator: Adobe Illustrator 16.0.0, SVG Export Plug-In . SVG Version: 6.00 Build 0)  -->
<!DOCTYPE svg PUBLIC "-//W3C//DTD SVG 1.1//EN" "http://www.w3.org/Graphics/SVG/1.1/DTD/svg11.dtd">
<svg version="1.1" id="Layer_1" xmlns="http://www.w3.org/2000/svg" xmlns:xlink="http://www.w3.org/1999/xlink" x="0px" y="0px"
	 width="301.602px" height="312.96px" viewBox="0 0 301.602 312.96" enable-background="new 0 0 301.602 312.96" fill="#96aeb9"
	 xml:space="preserve">
<g>
	<defs>
		<rect id="SVGID_1_" width="301.602" height="312.96"/>
	</defs>
	<clipPath id="SVGID_2_">
		<use xlink:href="#SVGID_1_"  overflow="visible"/>
	</clipPath>
	<path clip-path="url(#SVGID_2_)" d="M202.258,107.944c15.105,0,27.395-12.289,27.395-27.394c0-15.106-12.289-27.395-27.395-27.395
		s-27.395,12.289-27.395,27.395C174.863,95.655,187.152,107.944,202.258,107.944 M202.258,67.557
		c7.164,0,12.996,5.828,12.996,12.993c0,7.164-5.832,12.996-12.996,12.996s-12.996-5.832-12.996-12.996
		C189.262,73.385,195.094,67.557,202.258,67.557"/>
	<path clip-path="url(#SVGID_2_)" d="M22.281,212.163h15.008c3.977,0,7.512-3.324,7.512-7.305v-29.063
		c0-43.649,27.179-83.571,67.867-99.344c3.707-1.438,5.394-5.61,3.957-9.313c-1.437-3.711-5.609-5.55-9.316-4.113
		C84.82,71.745,65.766,86.85,51.914,106.71c-14.176,20.328-21.516,44.218-21.516,69.086v21.964h-8.117
		c-4.304,0-7.883-3.601-7.883-7.91v-32.832c0-3.347,2.278-6.406,5.481-7.437c3.789-1.219,5.887-5.278,4.668-9.063
		c-1.219-3.781-5.301-5.863-9.09-4.644C6.23,138.842,0,147.342,0,157.018v32.832C0,202.096,10.035,212.163,22.281,212.163"/>
	<path clip-path="url(#SVGID_2_)" d="M179.332,12.139l-1.191,11.473c-4.648,1.969-9.023,4.492-13.066,7.551l-10.578-4.727
		c-6.68-3.406-15.047,1.828-21.953,13.793c-6.926,11.996-7.262,21.867-0.93,25.934l9.301,6.738
		c-0.312,2.531-0.469,5.086-0.469,7.641c0,2.511,0.153,5.031,0.457,7.523l-9.308,6.742c-2.379,1.551-5.621,5.2-4.067,13.25
		c0.743,3.856,2.524,8.356,5.016,12.668c6.902,11.961,15.266,17.196,21.949,13.797l10.473-4.68
		c4.078,3.094,8.492,5.649,13.191,7.637l1.176,11.336c0.355,7.516,9.07,12.16,22.926,12.16c13.816,0,22.535-4.633,22.922-12.125
		l1.18-11.371c4.699-1.988,9.113-4.543,13.191-7.637l9.473,4.231c5.633,13.203,8.484,27.23,8.484,41.719
		c0,47.015-30.484,88.144-74.863,101.875c-4.07-6.739-11.473-11.106-19.906-11.106h-23.476c-12.817,0-23.239,10.384-23.239,23.199
		c0,12.813,10.422,23.2,23.239,23.2h23.476c12.113,0,22.094-9.426,23.148-21.27c23.465-7.082,44.566-21.391,59.902-40.73
		c9.332-11.77,16.262-25.2,20.629-38.801h13.301c12.246,0,21.883-10.063,21.883-22.31v-32.832c0-9.676-6.04-18.176-15.27-21.147
		c-3.785-1.219-7.762,0.863-8.98,4.648c-1.219,3.785,0.742,7.84,4.527,9.059c3.203,1.035,5.32,4.094,5.32,7.44v32.832
		c0,4.306-3.176,7.91-7.48,7.91h-9.758c1.293-7.199,1.945-14.492,1.945-21.918c0-15.351-2.824-30.285-8.406-44.398
		c0.004-0.004,0.008-0.019,0.008-0.023c2.969-2.575,5.973-6.371,8.461-10.688c6.91-11.957,7.262-21.824,0.973-25.91l-9.324-6.758
		c0.301-2.488,0.453-5.008,0.453-7.523c0-2.551-0.156-5.106-0.469-7.637l9.332-6.762c6.297-4.082,5.949-13.949-0.961-25.914
		c-2.492-4.316-5.496-8.109-8.465-10.679c-6.191-5.372-10.977-4.387-13.508-3.102l-10.559,4.715
		c-4.043-3.055-8.418-5.582-13.07-7.551l-1.191-11.5C224.81,4.799,216.483,0.219,203.244,0h-1.972
		C187.998,0.219,179.679,4.807,179.332,12.139 M162.738,298.561h-23.476c-4.875,0-8.84-3.926-8.84-8.801s3.965-8.8,8.84-8.8h23.476
		c4.199,0,7.723,2.793,8.621,6.722c0.016,0.086,0.031,0.095,0.051,0.177c0.109,0.559,0.168,1.207,0.168,1.793
		C171.578,294.526,167.613,298.561,162.738,298.561 M192.008,29.507l1.445-13.922c1.621-0.559,4.664-1.207,8.805-1.207
		s7.18,0.648,8.804,1.207l1.446,13.922c0.289,2.808,2.191,5.183,4.867,6.085c5.977,2.008,11.43,5.157,16.199,9.356
		c2.117,1.863,5.121,2.32,7.695,1.172l12.785-5.711c1.297,1.125,3.375,3.437,5.445,7.023c2.07,3.582,3.031,6.543,3.359,8.227
		l-11.298,8.183c-2.284,1.657-3.39,4.493-2.831,7.258c0.625,3.09,0.941,6.266,0.941,9.442c0,3.148-0.309,6.293-0.922,9.343
		c-0.551,2.762,0.555,5.594,2.836,7.247l11.277,8.168c-0.332,1.683-1.293,4.644-3.363,8.23c-2.066,3.582-4.148,5.891-5.441,7.02
		l-12.691-5.668c-2.578-1.153-5.594-0.692-7.707,1.183c-4.789,4.238-10.273,7.414-16.297,9.434
		c-2.672,0.902-4.574,3.277-4.867,6.086l-1.43,13.789c-1.625,0.558-4.668,1.203-8.809,1.203c-4.137,0-7.18-0.645-8.805-1.203
		l-1.43-13.793c-0.293-2.805-2.195-5.184-4.871-6.082c-6.023-2.02-11.504-5.196-16.297-9.434c-2.113-1.871-5.129-2.332-7.707-1.18
		l-12.688,5.668c-1.297-1.128-3.379-3.437-5.449-7.023c-2.067-3.586-3.028-6.543-3.36-8.227l11.278-8.171
		c2.277-1.653,3.387-4.481,2.836-7.239c-0.613-3.062-0.922-6.207-0.922-9.351c0-3.176,0.316-6.356,0.941-9.446
		c0.559-2.761-0.551-5.597-2.836-7.254l-11.297-8.187c0.328-1.684,1.289-4.645,3.36-8.227c2.07-3.586,4.152-5.894,5.449-7.023
		l12.781,5.711c2.574,1.152,5.582,0.695,7.699-1.168c4.766-4.199,10.215-7.348,16.199-9.359
		C189.812,34.69,191.715,32.315,192.008,29.507"/>
</g>
</svg>
